<svg xmlns="http://www.w3.org/2000/svg" xmlns:xlink="http://www.w3.org/1999/xlink" data-v-0dd9719b="" version="1.0" preserveAspectRatio="xMidYMid meet" color-interpolation-filters="sRGB" style="margin: auto;" viewBox="82 108.56 174.98 29.69">
  <g data-v-0dd9719b="" fill="#1c7ff2" class="icon-text-wrapper icon-svg-group iconsvg" transform="translate(82,5)">
    <g transform="translate(0,103.55847930908203)">
      <g data-gra="path-name" fill-rule="" class="tp-name iconsvg-namesvg">
        <g transform="scale(1)">
          <g>
            <path d="M31.02-6.43L31.02-24.62C31.02-26.54 30.59-27.81 29.75-28.44 28.91-29.07 27.65-29.39 26-29.39 25.02-29.39 24.19-29.22 23.49-28.89 22.79-28.56 22.21-28.01 21.77-27.22 21.33-26.43 21.11-25.44 21.11-24.24L21.11-17.42 12.4-17.42 12.4-24.62C12.4-26.54 11.99-27.81 11.17-28.44 10.36-29.07 9.09-29.39 7.38-29.39 5.89-29.39 4.7-28.97 3.8-28.14 2.9-27.31 2.45-26.01 2.45-24.24L2.57-6.13C2.57-3.85 2.96-2.25 3.73-1.35 4.5-0.45 5.72 0 7.38 0 9.12 0 10.4-0.49 11.2-1.46 12-2.43 12.4-4.09 12.4-6.43L12.4-10.98 21.15-10.98 21.19-6.13C21.19-3.85 21.58-2.25 22.35-1.35 23.12-0.45 24.34 0 26 0 27.68 0 28.94-0.49 29.77-1.48 30.6-2.47 31.02-4.12 31.02-6.43ZM52.34-6.52L52.34-4.25C52.34-2.79 52.72-1.72 53.49-1.03 54.27-0.34 55.6 0 57.48 0 58.83 0 59.82-0.36 60.46-1.07 61.11-1.79 61.57-3.05 61.84-4.87 62.11-6.68 62.24-9.48 62.24-13.26 62.24-15.6 61.96-17.72 61.39-19.6 60.82-21.49 60.08-23.03 59.18-24.22 58.28-25.4 57.23-26.4 56.02-27.2 54.82-28 53.64-28.56 52.46-28.89 51.29-29.22 50.1-29.39 48.9-29.39 47.9-29.39 46.91-29.26 45.92-29.02 44.94-28.78 43.92-28.41 42.88-27.93 41.83-27.44 40.87-26.76 39.98-25.89 39.09-25.02 38.3-24.01 37.6-22.86 36.9-21.72 36.34-20.33 35.93-18.68 35.51-17.04 35.31-15.23 35.31-13.26 35.31-11 35.36-9.13 35.46-7.66 35.56-6.18 35.7-4.93 35.88-3.88 36.07-2.84 36.36-2.04 36.74-1.5 37.13-0.96 37.58-0.57 38.09-0.34 38.61-0.11 39.27 0 40.07 0 41.95 0 43.28-0.34 44.06-1.03 44.83-1.72 45.21-2.79 45.21-4.25L45.21-6.52ZM48.82-22.39C49.59-22.39 50.23-22.26 50.73-21.99 51.23-21.71 51.62-21.21 51.91-20.48 52.19-19.75 52.34-18.79 52.34-17.59L52.34-12.44 45.21-12.44 45.21-17.5C45.21-19.33 45.51-20.61 46.09-21.32 46.68-22.04 47.59-22.39 48.82-22.39ZM76.49-6.43L76.49-10.6 78.85-10.64C79.82-10.64 80.58-10.5 81.12-10.21 81.66-9.92 82.11-9.3 82.45-8.34 82.79-7.39 82.96-6.02 82.96-4.25 82.96-2.82 83.36-1.75 84.14-1.05 84.93-0.35 86.17 0 87.86 0 89.06 0 89.99-0.17 90.64-0.51 91.3-0.86 91.81-1.54 92.17-2.55 92.52-3.57 92.7-5.02 92.7-6.91 92.7-8.77 92.12-10.32 90.94-11.56 89.77-12.81 88.5-13.47 87.13-13.56 88.93-14.07 90.24-14.88 91.05-15.98 91.87-17.08 92.27-18.6 92.27-20.55 92.27-23.12 91.19-25.23 89.01-26.88 86.84-28.52 83.99-29.34 80.48-29.34L71.47-29.34C70.01-29.34 68.83-28.91 67.93-28.03 67.03-27.16 66.58-25.9 66.58-24.24L66.58-6.13C66.58-3.85 66.97-2.25 67.76-1.35 68.54-0.45 69.78 0 71.47 0 74.81 0 76.49-2.14 76.49-6.43ZM83.05-20.85C83.05-19.42 82.51-18.42 81.44-17.87 80.37-17.31 78.72-17.03 76.49-17.03L76.49-24.45C78.86-24.45 80.55-24.19 81.55-23.68 82.55-23.16 83.05-22.22 83.05-20.85ZM114.15-6.43L114.15-21.96 118.14-21.96C119.23-21.96 120.11-22.06 120.8-22.26 121.49-22.46 122.04-22.83 122.45-23.36 122.87-23.89 123.07-24.62 123.07-25.57 123.07-26.97 122.72-27.96 122-28.53 121.29-29.1 120.13-29.39 118.53-29.39L100.17-29.39C98.97-29.39 98.01-29.28 97.29-29.06 96.58-28.85 96.04-28.48 95.68-27.97 95.33-27.45 95.15-26.75 95.15-25.87 95.15-24.41 95.6-23.39 96.5-22.82 97.4-22.25 98.75-21.96 100.55-21.96L104.2-21.96 104.29-6.13C104.31-3.85 104.71-2.25 105.46-1.35 106.22-0.45 107.45 0 109.13 0 110.28 0 111.2-0.19 111.9-0.56 112.6-0.93 113.15-1.59 113.55-2.55 113.95-3.51 114.15-4.8 114.15-6.43ZM144.87-17.42L137.49-17.42 137.49-22.44 146.84-22.44C148.44-22.44 149.59-22.69 150.29-23.19 150.99-23.69 151.34-24.57 151.34-25.82 151.34-27.17 150.94-28.1 150.12-28.61 149.31-29.13 148.07-29.39 146.41-29.39L132.51-29.39C129.25-29.39 127.62-27.67 127.62-24.24L127.62-6.13C127.62-3.85 128.01-2.25 128.8-1.35 129.59-0.45 130.82 0 132.51 0L146.41 0C148.07 0 149.31-0.27 150.12-0.82 150.94-1.36 151.34-2.32 151.34-3.69 151.34-4.89 150.99-5.73 150.29-6.2 149.59-6.67 148.44-6.91 146.84-6.91L137.53-6.95 137.53-11.5 144.48-11.5C146.02-11.5 147.16-11.7 147.89-12.12 148.62-12.53 148.98-13.23 148.98-14.2 148.98-15.37 148.68-16.2 148.06-16.69 147.45-17.17 146.38-17.42 144.87-17.42ZM163.18-8.54C163.18-8.79 163.23-9.24 163.31-9.87 163.4-10.5 163.44-10.95 163.44-11.24 163.44-12.18 163.03-12.93 162.22-13.47 161.4-14.01 160.24-14.29 158.72-14.29 156.84-14.29 155.57-13.93 154.93-13.23 154.28-12.53 153.96-11.22 153.96-9.31 153.96-8.79 154.01-8.29 154.11-7.79 154.21-7.29 154.35-6.76 154.54-6.2 154.73-5.64 154.99-5.1 155.33-4.57 155.68-4.04 156.07-3.53 156.51-3.05 156.96-2.56 157.5-2.12 158.14-1.72 158.79-1.32 159.49-0.97 160.27-0.66 161.04-0.36 161.93-0.13 162.93 0.04 163.93 0.21 165.01 0.3 166.19 0.3 169.88 0.3 172.67-0.41 174.57-1.84 176.48-3.27 177.43-5.56 177.43-8.71L177.43-24.62C177.43-26.37 176.98-27.6 176.1-28.31 175.21-29.03 173.99-29.39 172.45-29.39 170.71-29.39 169.45-28.96 168.7-28.12 167.94-27.28 167.56-25.98 167.56-24.24L167.56-8.54C167.56-7.51 167.4-6.8 167.09-6.41 166.77-6.03 166.26-5.83 165.54-5.83 164.94-5.83 164.4-6.08 163.91-6.56 163.43-7.05 163.18-7.71 163.18-8.54Z" transform="translate(-2.450000047683716, 29.389999389648438)" />
          </g>
        </g>
      </g>
    </g>
  </g>
</svg>